# xmcd
#
# Track frame offsets: 
#        187
#        18670
#        37632
#        51450
#        69522
#        83152
#        93447
#        118940
#
# Disc length: 1851 seconds
#
# Revision: 2
# Processed by: cddbd v1.4PL0 Copyright (c) Steve Scherf et al.
# Submitted via: ExactAudioCopy v0.90b3
#
DISCID=64073908
DTITLE=Alabama - In The Beginning
DYEAR=1900
DGENRE=Country
TTITLE0=Fantasy
TTITLE1=Why Lady Why
TTITLE2=As Right Now
TTITLE3=Food On The Table
TTITLE4=Lovin' You Is Killin' Me
TTITLE5=Hanging Up My Travelin' Shoes
TTITLE6=Can't Forget About You
TTITLE7=Carolina Mountain Dewe
EXTD=
EXTT0=
EXTT1=
EXTT2=
EXTT3=
EXTT4=
EXTT5=
EXTT6=
EXTT7=
PLAYORDER=
